<svg width="1280" height="640" viewBox="0 0 1280 640" fill="none" xmlns="http://www.w3.org/2000/svg">
  <!-- Enrichment Engine Banner (Generated via Nix) -->
  <defs>
  <linearGradient id="grad-agentic" x1="0%" y1="0%" x2="100%" y2="100%">
  <stop offset="0%" stop-color="#d8b4fe" />
  <stop offset="100%" stop-color="#7e22ce" />
</linearGradient>
      <linearGradient id="grad-brandCore" x1="0%" y1="0%" x2="100%" y2="100%">
  <stop offset="0%" stop-color="#fdba74" />
  <stop offset="100%" stop-color="#c2410c" />
</linearGradient>
      <linearGradient id="grad-compliance" x1="0%" y1="0%" x2="100%" y2="100%">
  <stop offset="0%" stop-color="#fcd34d" />
  <stop offset="100%" stop-color="#b45309" />
</linearGradient>
      <linearGradient id="grad-execution" x1="0%" y1="0%" x2="100%" y2="100%">
  <stop offset="0%" stop-color="#67e8f9" />
  <stop offset="100%" stop-color="#0891b2" />
</linearGradient>
      <linearGradient id="grad-financial" x1="0%" y1="0%" x2="100%" y2="100%">
  <stop offset="0%" stop-color="#fda4af" />
  <stop offset="100%" stop-color="#9f1239" />
</linearGradient>
      <linearGradient id="grad-frontend" x1="0%" y1="0%" x2="100%" y2="100%">
  <stop offset="0%" stop-color="#5eead4" />
  <stop offset="100%" stop-color="#0f766e" />
</linearGradient>
      <linearGradient id="grad-infrastructure" x1="0%" y1="0%" x2="100%" y2="100%">
  <stop offset="0%" stop-color="#34d399" />
  <stop offset="100%" stop-color="#064e3b" />
</linearGradient>
      <linearGradient id="grad-intelligence" x1="0%" y1="0%" x2="100%" y2="100%">
  <stop offset="0%" stop-color="#34d399" />
  <stop offset="100%" stop-color="#047857" />
</linearGradient>
      <linearGradient id="grad-platform" x1="0%" y1="0%" x2="100%" y2="100%">
  <stop offset="0%" stop-color="#818cf8" />
  <stop offset="100%" stop-color="#3730a3" />
</linearGradient>
      <linearGradient id="grad-tooling" x1="0%" y1="0%" x2="100%" y2="100%">
  <stop offset="0%" stop-color="#94a3b8" />
  <stop offset="100%" stop-color="#334155" />
</linearGradient>
  <radialGradient id="grad-core-glow" cx="50%" cy="50%" r="50%" fx="50%" fy="50%">
    <stop offset="0%" stop-color="#ffffff" stop-opacity="0.3" />
    <stop offset="100%" stop-color="#ffffff" stop-opacity="0" />
  </radialGradient>
</defs>

  <rect width="1280" height="640" fill="#020617"/>
  <circle cx="960" cy="320" r="600" fill="url(#grad-core-glow)" opacity="0.3"/>
  
  <!-- Background Banner Graphics rendered BEFORE the text and logo -->
  <circle cx="960" cy="320" r="480" stroke="url(#grad-platform)" stroke-opacity="0.3" stroke-width="40" stroke-linecap="round" stroke-dasharray="1000 400 800 800" transform="rotate(45 960 320)" />
<circle cx="960" cy="320" r="480" stroke="url(#grad-infrastructure)" stroke-opacity="0.5" stroke-width="40" stroke-linecap="round" stroke-dasharray="600 2400" transform="rotate(-30 960 320)" />
<circle cx="960" cy="320" r="360" stroke="url(#grad-agentic)" stroke-opacity="0.8" stroke-width="32" stroke-linecap="round" stroke-dasharray="600 300 400 900" transform="rotate(120 960 320)" />
<circle cx="960" cy="320" r="360" stroke="url(#grad-execution)" stroke-opacity="1.0" stroke-width="32" stroke-linecap="round" stroke-dasharray="800 1400" transform="rotate(-60 960 320)" />
<circle cx="960" cy="320" r="240" stroke="url(#grad-intelligence)" stroke-opacity="0.8" stroke-width="24" stroke-linecap="round" stroke-dasharray="400 200 300 600" transform="rotate(15 960 320)" />
<circle cx="960" cy="320" r="240" stroke="url(#grad-compliance)" stroke-opacity="0.5" stroke-width="24" stroke-linecap="round" stroke-dasharray="500 1000" transform="rotate(210 960 320)" />
<circle cx="960" cy="320" r="120" stroke="url(#grad-financial)" stroke-opacity="0.8" stroke-width="16" stroke-linecap="round" stroke-dasharray="200 100 150 300" transform="rotate(-45 960 320)" />
<circle cx="960" cy="320" r="120" stroke="url(#grad-brandCore)" stroke-opacity="1.0" stroke-width="16" stroke-linecap="round" stroke-dasharray="300 450" transform="rotate(90 960 320)" />
<circle cx="960" cy="320" r="40" fill="url(#grad-brandCore)" fill-opacity="0.8" />
<circle cx="960" cy="320" r="20" fill="#020617" />
<circle cx="720" cy="120" r="12" fill="url(#grad-agentic)" fill-opacity="0.8" />
<circle cx="1280" cy="560" r="16" fill="url(#grad-execution)" fill-opacity="0.8" />
<circle cx="1120" cy="80" r="10" fill="url(#grad-intelligence)" fill-opacity="0.8" />

  
  <!-- Injected Project Logo (Scaled and Positioned) rendered on top of background -->
  <g transform="translate(120, 90) scale(0.3)">
    <g stroke-width="20" stroke-linecap="round">
  <circle cx="256" cy="256" r="210" stroke="url(#grad-compliance)" stroke-opacity="0.15" />
  <circle cx="256" cy="256" r="210" stroke="url(#grad-compliance)" stroke-opacity="0.8" stroke-dasharray="4 13.8" />
  <path d="M256 46 A 210 210 0 0 1 340 65" stroke="url(#grad-compliance)" stroke-opacity="1.0" stroke-width="24" />
  <path d="M172 65 A 210 210 0 0 1 256 46" stroke="url(#grad-brandCore)" stroke-opacity="1.0" stroke-width="24" />
</g>
<g stroke-width="14" stroke-linecap="round">
  <path d="M256 111 A 145 145 0 0 1 401 256" stroke="url(#grad-compliance)" stroke-opacity="1.0" stroke-dasharray="100 15" />
  <path d="M401 256 A 145 145 0 0 1 256 401" stroke="url(#grad-compliance)" stroke-opacity="0.5" stroke-dasharray="40 40" />
  <path d="M256 401 A 145 145 0 0 1 111 256" stroke="url(#grad-brandCore)" stroke-opacity="0.8" stroke-dasharray="10 10 60 10" />
</g>
<g>
  <circle cx="256" cy="256" r="85" stroke="url(#grad-compliance)" stroke-opacity="0.3" stroke-width="4" />
  <circle cx="256" cy="256" r="25" fill="url(#grad-compliance)" fill-opacity="1.0" />
  <g stroke="url(#grad-compliance)" stroke-opacity="1.0" stroke-width="10" stroke-linecap="round">
    <path d="M256 256 L 256 180" />
    <path d="M256 256 L 320 293" />
    <path d="M256 256 L 192 293" />
  </g>
  <circle cx="256" cy="180" r="10" fill="url(#grad-compliance)" fill-opacity="1.0" />
  <circle cx="320" cy="293" r="10" fill="url(#grad-brandCore)" fill-opacity="1.0" />
  <circle cx="192" cy="293" r="10" fill="url(#grad-compliance)" fill-opacity="1.0" />
</g>

  </g>

  <!-- Typography shifted down to accommodate the logo, rendered absolute last (on top) -->
  <g font-family="system-ui, -apple-system, sans-serif">
    <text x="120" y="320" font-size="84" font-weight="800" fill="#f8fafc" letter-spacing="-2">enrichment-engine</text>
    <text x="125" y="380" font-size="28" font-weight="600" fill="url(#grad-compliance)" letter-spacing="4">GRC VULNERABILITY MAPPING</text>
    <text x="125" y="440" font-size="22" font-weight="400" fill="#94a3b8" letter-spacing="1">vincents.ai ecosystem</text>
  </g>
</svg>
