<svg width="512" height="512" viewBox="0 0 512 512" fill="none" xmlns="http://www.w3.org/2000/svg">
  <!-- Billing Auth Service Logo (Generated via Nix) -->
  <defs>
  <linearGradient id="grad-agentic" x1="0%" y1="0%" x2="100%" y2="100%">
  <stop offset="0%" stop-color="#d8b4fe" />
  <stop offset="100%" stop-color="#7e22ce" />
</linearGradient>
      <linearGradient id="grad-brandCore" x1="0%" y1="0%" x2="100%" y2="100%">
  <stop offset="0%" stop-color="#fdba74" />
  <stop offset="100%" stop-color="#c2410c" />
</linearGradient>
      <linearGradient id="grad-compliance" x1="0%" y1="0%" x2="100%" y2="100%">
  <stop offset="0%" stop-color="#fcd34d" />
  <stop offset="100%" stop-color="#b45309" />
</linearGradient>
      <linearGradient id="grad-execution" x1="0%" y1="0%" x2="100%" y2="100%">
  <stop offset="0%" stop-color="#67e8f9" />
  <stop offset="100%" stop-color="#0891b2" />
</linearGradient>
      <linearGradient id="grad-financial" x1="0%" y1="0%" x2="100%" y2="100%">
  <stop offset="0%" stop-color="#fda4af" />
  <stop offset="100%" stop-color="#9f1239" />
</linearGradient>
      <linearGradient id="grad-frontend" x1="0%" y1="0%" x2="100%" y2="100%">
  <stop offset="0%" stop-color="#5eead4" />
  <stop offset="100%" stop-color="#0f766e" />
</linearGradient>
      <linearGradient id="grad-infrastructure" x1="0%" y1="0%" x2="100%" y2="100%">
  <stop offset="0%" stop-color="#34d399" />
  <stop offset="100%" stop-color="#064e3b" />
</linearGradient>
      <linearGradient id="grad-intelligence" x1="0%" y1="0%" x2="100%" y2="100%">
  <stop offset="0%" stop-color="#34d399" />
  <stop offset="100%" stop-color="#047857" />
</linearGradient>
      <linearGradient id="grad-platform" x1="0%" y1="0%" x2="100%" y2="100%">
  <stop offset="0%" stop-color="#818cf8" />
  <stop offset="100%" stop-color="#3730a3" />
</linearGradient>
      <linearGradient id="grad-tooling" x1="0%" y1="0%" x2="100%" y2="100%">
  <stop offset="0%" stop-color="#94a3b8" />
  <stop offset="100%" stop-color="#334155" />
</linearGradient>
  <radialGradient id="grad-core-glow" cx="50%" cy="50%" r="50%" fx="50%" fy="50%">
    <stop offset="0%" stop-color="#ffffff" stop-opacity="0.3" />
    <stop offset="100%" stop-color="#ffffff" stop-opacity="0" />
  </radialGradient>
</defs>

  <g stroke-width="22" stroke-linecap="round">
  <path d="M256 46 A 210 210 0 0 1 437.9 151" stroke="url(#grad-platform)" stroke-opacity="0.8" />
  <path d="M458.9 201.8 A 210 210 0 0 1 465.8 240" stroke="url(#grad-platform)" stroke-opacity="1.0" />
  <path d="M427.1 377.6 A 210 210 0 0 1 327.8 453.2" stroke="url(#grad-financial)" stroke-opacity="0.8" />
  <path d="M256 466 A 210 210 0 0 1 95.4 391.3" stroke="url(#grad-financial)" stroke-opacity="0.5" />
  <path d="M64.6 318.5 A 210 210 0 0 1 50.4 200" stroke="url(#grad-platform)" stroke-opacity="1.0" />
  <path d="M85.4 130 A 210 210 0 0 1 195.9 54" stroke="url(#grad-platform)" stroke-opacity="0.8" />
  <path d="M225 48.5 A 210 210 0 0 1 256 46" stroke="url(#grad-brandCore)" stroke-opacity="1.0" stroke-width="24" />
</g>
<g stroke-width="16" stroke-linecap="round">
  <circle cx="256" cy="256" r="145" stroke="url(#grad-platform)" stroke-opacity="0.15" />
  <path d="M256 111 A 145 145 0 0 1 401 256" stroke="url(#grad-platform)" stroke-opacity="0.8" stroke-dasharray="100 20" />
  <path d="M111 256 A 145 145 0 0 1 256 111" stroke="url(#grad-financial)" stroke-opacity="0.8" stroke-dasharray="60 40" />
  <path d="M256 401 A 145 145 0 0 1 111 256" stroke="url(#grad-brandCore)" stroke-opacity="0.5" stroke-dasharray="20 15 40 10" />
</g>
<g>
  <circle cx="256" cy="256" r="85" stroke="url(#grad-platform)" stroke-opacity="0.5" stroke-width="18" stroke-dasharray="25 15" stroke-linecap="round" />
  <circle cx="256" cy="235" r="18" stroke="url(#grad-financial)" stroke-opacity="1.0" stroke-width="10" />
  <path d="M256 253 L 256 285 M 244 285 H 268" stroke="url(#grad-financial)" stroke-opacity="1.0" stroke-width="10" stroke-linecap="round" />
  <circle cx="256" cy="256" r="85" fill="url(#grad-core-glow)" />
  <circle cx="256" cy="256" r="10" fill="url(#grad-platform)" fill-opacity="0.5" />
</g>
<circle cx="256" cy="46" r="8" fill="url(#grad-brandCore)" fill-opacity="1.0" />
<circle cx="466" cy="256" r="8" fill="url(#grad-platform)" fill-opacity="1.0" />
<circle cx="256" cy="466" r="8" fill="url(#grad-financial)" fill-opacity="1.0" />
<circle cx="46" cy="256" r="8" fill="url(#grad-platform)" fill-opacity="0.5" />

</svg>
