<svg width="512" height="512" viewBox="0 0 512 512" fill="none" xmlns="http://www.w3.org/2000/svg">
  <!-- Vulnz Logo (Generated via Nix) -->
  <defs>
  <linearGradient id="grad-agentic" x1="0%" y1="0%" x2="100%" y2="100%">
  <stop offset="0%" stop-color="#d8b4fe" />
  <stop offset="100%" stop-color="#7e22ce" />
</linearGradient>
      <linearGradient id="grad-brandCore" x1="0%" y1="0%" x2="100%" y2="100%">
  <stop offset="0%" stop-color="#fdba74" />
  <stop offset="100%" stop-color="#c2410c" />
</linearGradient>
      <linearGradient id="grad-compliance" x1="0%" y1="0%" x2="100%" y2="100%">
  <stop offset="0%" stop-color="#fcd34d" />
  <stop offset="100%" stop-color="#b45309" />
</linearGradient>
      <linearGradient id="grad-execution" x1="0%" y1="0%" x2="100%" y2="100%">
  <stop offset="0%" stop-color="#67e8f9" />
  <stop offset="100%" stop-color="#0891b2" />
</linearGradient>
      <linearGradient id="grad-financial" x1="0%" y1="0%" x2="100%" y2="100%">
  <stop offset="0%" stop-color="#fda4af" />
  <stop offset="100%" stop-color="#9f1239" />
</linearGradient>
      <linearGradient id="grad-frontend" x1="0%" y1="0%" x2="100%" y2="100%">
  <stop offset="0%" stop-color="#5eead4" />
  <stop offset="100%" stop-color="#0f766e" />
</linearGradient>
      <linearGradient id="grad-infrastructure" x1="0%" y1="0%" x2="100%" y2="100%">
  <stop offset="0%" stop-color="#34d399" />
  <stop offset="100%" stop-color="#064e3b" />
</linearGradient>
      <linearGradient id="grad-intelligence" x1="0%" y1="0%" x2="100%" y2="100%">
  <stop offset="0%" stop-color="#34d399" />
  <stop offset="100%" stop-color="#047857" />
</linearGradient>
      <linearGradient id="grad-platform" x1="0%" y1="0%" x2="100%" y2="100%">
  <stop offset="0%" stop-color="#818cf8" />
  <stop offset="100%" stop-color="#3730a3" />
</linearGradient>
      <linearGradient id="grad-tooling" x1="0%" y1="0%" x2="100%" y2="100%">
  <stop offset="0%" stop-color="#94a3b8" />
  <stop offset="100%" stop-color="#334155" />
</linearGradient>
  <radialGradient id="grad-core-glow" cx="50%" cy="50%" r="50%" fx="50%" fy="50%">
    <stop offset="0%" stop-color="#ffffff" stop-opacity="0.3" />
    <stop offset="100%" stop-color="#ffffff" stop-opacity="0" />
  </radialGradient>
</defs>

  <g stroke-width="22" stroke-linecap="round">
  <path d="M256 46 A 210 210 0 0 1 361 74" stroke="url(#grad-compliance)" stroke-opacity="1.0" />
  <path d="M394 95 A 210 210 0 0 1 454 180" stroke="url(#grad-compliance)" stroke-opacity="0.8" />
  <path d="M464 220 A 210 210 0 0 1 464 292" stroke="url(#grad-compliance)" stroke-opacity="0.5" />
  <path d="M454 332 A 210 210 0 0 1 394 417" stroke="url(#grad-compliance)" stroke-opacity="1.0" />
  <path d="M361 438 A 210 210 0 0 1 256 466" stroke="url(#grad-brandCore)" stroke-opacity="0.8" />
  <path d="M210 462 A 210 210 0 0 1 118 420" stroke="url(#grad-compliance)" stroke-opacity="0.3" />
  <path d="M85 390 A 210 210 0 0 1 50 300" stroke="url(#grad-compliance)" stroke-opacity="1.0" />
  <path d="M46 256 A 210 210 0 0 1 58 185" stroke="url(#grad-compliance)" stroke-opacity="0.8" />
  <path d="M82 140 A 210 210 0 0 1 151 74" stroke="url(#grad-compliance)" stroke-opacity="0.5" />
  <path d="M195 54 A 210 210 0 0 1 256 46" stroke="url(#grad-brandCore)" stroke-opacity="1.0" />
</g>
<g stroke-width="14" stroke-linecap="round">
  <circle cx="256" cy="256" r="145" stroke="url(#grad-compliance)" stroke-opacity="0.15" />
  <path d="M256 111 A 145 145 0 0 1 401 256" stroke="url(#grad-compliance)" stroke-opacity="0.8" stroke-dasharray="20 15 60 10" />
  <path d="M401 256 A 145 145 0 0 1 256 401" stroke="url(#grad-compliance)" stroke-opacity="0.5" stroke-dasharray="40 40" />
  <path d="M256 401 A 145 145 0 0 1 111 256" stroke="url(#grad-brandCore)" stroke-opacity="0.8" stroke-dasharray="10 10 60 10" />
</g>
<g>
  <circle cx="256" cy="256" r="85" stroke="url(#grad-compliance)" stroke-opacity="0.5" stroke-width="18" stroke-dasharray="12 18" stroke-linecap="round" />
  <path d="M220 220 L 292 292 M 220 292 L 292 220" stroke="url(#grad-compliance)" stroke-opacity="1.0" stroke-width="10" stroke-linecap="round" />
  <circle cx="256" cy="256" r="85" fill="url(#grad-core-glow)" />
  <circle cx="256" cy="256" r="14" fill="url(#grad-compliance)" fill-opacity="1.0" />
</g>

</svg>
